<?xml version="1.0" ?><!DOCTYPE svg  PUBLIC '-//W3C//DTD SVG 1.1//EN'  'http://www.w3.org/Graphics/SVG/1.1/DTD/svg11.dtd'><svg enable-background="new 0 0 512 512" height="512px" id="Layer_1" version="1.1" viewBox="0 0 512 512" width="512px" xml:space="preserve" xmlns="http://www.w3.org/2000/svg" xmlns:xlink="http://www.w3.org/1999/xlink"><g><path clip-rule="evenodd" d="M256.23,512C396.81,512,512,396.81,512,256.23   C512,115.184,396.81,0,256.23,0C115.184,0,0,115.184,0,256.23C0,396.81,115.184,512,256.23,512L256.23,512z" fill="#0CA3D1" fill-rule="evenodd"/><path d="M415.854,187.746c-1.813,31.293-23.123,73.922-65.306,127.885c-43.526,56.229-80.272,84.35-110.652,84.35   c-18.592,0-34.465-17.232-47.159-51.697c-8.616-31.293-17.232-63.04-25.856-94.326c-9.522-34.465-19.951-51.698-30.833-51.698   c-2.265,0-10.881,4.984-24.942,14.959l-15.42-19.498c15.873-13.608,31.293-27.661,46.714-41.269   c12.693-11.334,32.191-28.567,51.697-28.567c22.216,0,36.277,16.327,41.722,50.792c5.89,38.996,10.428,63.485,12.694,73.008   c7.257,32.652,14.967,48.525,23.575,48.525c6.813,0,16.78-10.436,30.388-31.293c13.155-21.311,20.404-37.184,21.326-48.065   c1.813-18.139-5-27.208-21.326-27.208c-7.702,0-15.42,1.813-23.575,4.984c14.514-46.706,47.167-70.743,86.615-70.743   C406.324,127.885,417.667,149.648,415.854,187.746L415.854,187.746z" fill="#FFFFFF"/></g></svg>