<?xml version="1.0" ?><!DOCTYPE svg  PUBLIC '-//W3C//DTD SVG 1.1//EN'  'http://www.w3.org/Graphics/SVG/1.1/DTD/svg11.dtd'><svg enable-background="new 0 0 512 512" height="512px" id="Layer_1" version="1.1" viewBox="0 0 512 512" width="512px" xml:space="preserve" xmlns="http://www.w3.org/2000/svg" xmlns:xlink="http://www.w3.org/1999/xlink"><g><path clip-rule="evenodd" d="M256.23,512C396.81,512,512,396.81,512,256.23   C512,115.184,396.81,0,256.23,0C115.184,0,0,115.184,0,256.23C0,396.81,115.184,512,256.23,512L256.23,512z" fill="#E17842" fill-rule="evenodd"/><path clip-rule="evenodd" d="M215.86,191.823c-4.078,0-7.71,3.633-7.71,8.164v127.892   c0,4.531,3.632,8.155,7.71,8.155c4.538,0,8.163-3.624,8.163-8.155V199.987C224.023,195.456,220.398,191.823,215.86,191.823   L215.86,191.823z M280.26,151.469c-5.438,3.171-8.172,7.257-8.172,12.693v163.717c0,4.531,3.641,8.155,7.719,8.155h104.301   c26.31,0,48.073-21.31,48.073-48.072c0-26.294-21.764-48.065-48.073-48.065l-4.077,0.453c2.718-7.71,4.077-15.873,4.077-24.489   c0-39.449-32.199-72.102-72.102-72.102C300.663,143.758,287.962,146.93,280.26,151.469L280.26,151.469z M248.06,175.958   c-4.531,0-8.163,3.625-8.163,8.155v143.766c0,4.531,3.632,8.155,8.163,8.155c4.539,0,8.171-3.624,8.171-8.155V184.113   C256.23,179.583,252.598,175.958,248.06,175.958L248.06,175.958z M119.722,224.023c-4.085,0-7.71,3.632-7.71,8.163v95.692   c0,4.531,3.625,8.155,7.71,8.155c4.531,0,8.163-3.624,8.163-8.155v-95.692C127.885,227.655,124.253,224.023,119.722,224.023   L119.722,224.023z M151.922,191.823c-4.539,0-8.164,3.633-8.164,8.164v127.892c0,4.531,3.625,8.155,8.164,8.155   c4.53,0,8.163-3.624,8.163-8.155V199.987C160.085,195.456,156.452,191.823,151.922,191.823L151.922,191.823z M87.976,320.161   c4.538,0,8.163-3.624,8.163-8.155V248.06c0-4.531-3.625-8.163-8.163-8.163c-4.531,0-8.164,3.632-8.164,8.163v63.946   C79.812,316.537,83.444,320.161,87.976,320.161L87.976,320.161z M184.121,175.958c-4.539,0-8.163,3.625-8.163,8.155v143.766   c0,4.531,3.625,8.155,8.163,8.155c4.078,0,7.702-3.624,7.702-8.155V184.113C191.823,179.583,188.199,175.958,184.121,175.958   L184.121,175.958z" fill="#FFFFFF" fill-rule="evenodd"/></g></svg>