<?xml version="1.0" ?><!DOCTYPE svg  PUBLIC '-//W3C//DTD SVG 1.1//EN'  'http://www.w3.org/Graphics/SVG/1.1/DTD/svg11.dtd'><svg enable-background="new 0 0 512 512" height="512px" id="Layer_1" version="1.1" viewBox="0 0 512 512" width="512px" xml:space="preserve" xmlns="http://www.w3.org/2000/svg" xmlns:xlink="http://www.w3.org/1999/xlink"><g><path clip-rule="evenodd" d="M256.23,512C396.81,512,512,396.81,512,256.23   C512,115.184,396.81,0,256.23,0C115.184,0,0,115.184,0,256.23C0,396.81,115.184,512,256.23,512L256.23,512z" fill="#E1584B" fill-rule="evenodd"/><path d="M407.684,224.023c0-86.616-77.539-127.885-156.905-127.885c-76.641,0-146.477,46.714-146.477,130.611   c0,32.653,4.991,50.792,26.755,75.273l39.91-34.012c-11.788-11.78-14.967-25.396-14.967-41.261   c0-53.065,48.979-80.273,96.599-80.273c51.237,0,100.669,22.678,100.669,79.82c0,50.338-50.339,70.29-92.506,56.228v-96.591   h-54.877v163.709c0,11.343-5.445,16.779-16.78,16.779c-9.522,0-18.592-4.53-25.396-11.796v47.167   c7.257,10.89,28.114,14.062,39.91,14.062c40.363,0,57.143-23.123,57.143-61.681v-29.919c16.326,8.155,45.792,9.062,63.493,4.53   C371.406,315.178,407.684,274.822,407.684,224.023L407.684,224.023z" fill="#FFFFFF"/></g></svg>