<?xml version="1.0" ?><!DOCTYPE svg  PUBLIC '-//W3C//DTD SVG 1.1//EN'  'http://www.w3.org/Graphics/SVG/1.1/DTD/svg11.dtd'><svg enable-background="new 0 0 512 512" height="512px" id="Layer_1" version="1.1" viewBox="0 0 512 512" width="512px" xml:space="preserve" xmlns="http://www.w3.org/2000/svg" xmlns:xlink="http://www.w3.org/1999/xlink"><g><path clip-rule="evenodd" d="M256.23,512C396.81,512,512,396.81,512,256.23   C512,115.184,396.81,0,256.23,0C115.184,0,0,115.184,0,256.23C0,396.81,115.184,512,256.23,512L256.23,512z" fill="#7CB442" fill-rule="evenodd"/><path clip-rule="evenodd" d="M127.885,399.98l85.71-36.277   c13.155,2.719,27.661,4.531,42.636,4.531c88.429,0,160.077-57.588,160.077-128.338c0-70.742-71.648-127.885-160.077-127.885   c-88.436,0-160.092,57.143-160.092,127.885c0,39.457,21.771,74.375,56.689,97.95L127.885,399.98z M256.23,303.835   c-53.064,0-96.146-28.56-96.146-63.938c0-35.371,43.081-63.938,96.146-63.938c53.057,0,95.678,28.567,95.678,63.938   C351.908,275.275,309.287,303.835,256.23,303.835L256.23,303.835z" fill="#FFFFFF" fill-rule="evenodd"/></g></svg>