<?xml version="1.0" ?><!DOCTYPE svg  PUBLIC '-//W3C//DTD SVG 1.1//EN'  'http://www.w3.org/Graphics/SVG/1.1/DTD/svg11.dtd'><svg enable-background="new 0 0 512 512" height="512px" id="Layer_1" version="1.1" viewBox="0 0 512 512" width="512px" xml:space="preserve" xmlns="http://www.w3.org/2000/svg" xmlns:xlink="http://www.w3.org/1999/xlink"><g><path clip-rule="evenodd" d="M256.23,512C396.81,512,512,396.81,512,256.23   C512,115.184,396.81,0,256.23,0C115.184,0,0,115.184,0,256.23C0,396.81,115.184,512,256.23,512L256.23,512z" fill="#0D2636" fill-rule="evenodd"/><path clip-rule="evenodd" d="M415.854,351.908h-112.02v-24.029   c0-30.84,25.403-55.791,56.244-55.791c30.824,0,55.775,24.951,55.775,55.791V351.908z M136.048,287.962   c-22.224,0-39.909-17.686-39.909-39.902c0-22.224,17.686-39.91,39.909-39.91c22.217,0,39.91,17.686,39.91,39.91   C175.958,270.276,158.265,287.962,136.048,287.962L136.048,287.962z M239.896,272.088c-26.302,0-48.073-21.763-48.073-48.064   c0-26.755,21.771-48.065,48.073-48.065c26.755,0,48.065,21.311,48.065,48.065C287.962,250.325,266.651,272.088,239.896,272.088   L239.896,272.088z M360.079,256.23c-30.841,0-56.244-25.403-56.244-56.244c0-30.833,25.403-56.229,56.244-56.229   c30.824,0,56.229,25.396,56.229,56.229C416.308,230.827,390.903,256.23,360.079,256.23L360.079,256.23z M175.958,351.908H96.139   v-7.702c0-22.232,17.686-40.371,39.909-40.371c21.764,0,39.91,18.139,39.91,40.371V351.908z M239.896,287.962   c26.302,0,48.065,21.778,48.065,48.072v15.874h-96.139v-15.874C191.823,309.74,213.595,287.962,239.896,287.962L239.896,287.962z" fill="#FFFFFF" fill-rule="evenodd"/></g></svg>