<?xml version="1.0" ?><!DOCTYPE svg  PUBLIC '-//W3C//DTD SVG 1.1//EN'  'http://www.w3.org/Graphics/SVG/1.1/DTD/svg11.dtd'><svg enable-background="new 0 0 512 512" height="512px" id="Layer_1" version="1.1" viewBox="0 0 512 512" width="512px" xml:space="preserve" xmlns="http://www.w3.org/2000/svg" xmlns:xlink="http://www.w3.org/1999/xlink"><g><path clip-rule="evenodd" d="M256.23,512C396.81,512,512,396.81,512,256.23   C512,115.184,396.81,0,256.23,0C115.184,0,0,115.184,0,256.23C0,396.81,115.184,512,256.23,512L256.23,512z" fill="#E17842" fill-rule="evenodd"/><path clip-rule="evenodd" d="M175.958,208.15c0-43.988,35.824-80.265,80.272-80.265   c43.979,0,79.804,36.277,79.804,80.265v15.874l-32.199,15.873l-15.873-15.873V208.15c0-17.686-14.499-32.192-31.731-32.192   c-17.693,0-32.207,14.506-32.207,32.192v103.856c0,39.449-32.653,72.102-72.102,72.102c-39.457,0-72.11-32.652-72.11-72.102V256.23   h48.073v55.775c0,13.155,10.882,24.028,24.037,24.028c13.146,0,24.036-10.873,24.036-24.028V208.15z M336.034,256.23v55.775   c0,13.155,10.89,24.028,24.045,24.028c13.139,0,23.575-10.42,24.028-23.575V256.23h48.073v55.775   c0,39.449-32.652,72.102-72.102,72.102c-39.465,0-72.117-32.652-72.117-72.102V256.23l15.873,15.857L336.034,256.23z" fill="#FFFFFF" fill-rule="evenodd"/></g></svg>