<?xml version="1.0" ?><!DOCTYPE svg  PUBLIC '-//W3C//DTD SVG 1.1//EN'  'http://www.w3.org/Graphics/SVG/1.1/DTD/svg11.dtd'><svg enable-background="new 0 0 512 512" height="512px" id="Layer_1" version="1.1" viewBox="0 0 512 512" width="512px" xml:space="preserve" xmlns="http://www.w3.org/2000/svg" xmlns:xlink="http://www.w3.org/1999/xlink"><g><path clip-rule="evenodd" d="M236.735,269.37c-12.242-11.327-25.835-27.208-31.729-41.262   c-0.906-1.812-2.717-6.351,0-9.975c5.441-7.257,6.347-7.71,12.234-14.514c4.083-4.992,7.253-9.522,5.895-13.608l-20.394-53.057   c-1.819-3.632-7.253-4.085-13.601-4.538c-5.442,0-11.328,0-15.412,0.906c-9.064,3.179-27.646,27.669-29.911,45.354   c-4.989,38.542,29.911,89.787,64.811,121.533c34.907,32.2,88.843,62.588,126.912,53.964c17.676-4.078,40.349-24.482,42.16-34.013   c0.906-4.077,0.453-9.968-0.453-15.42c-0.452-6.343-1.812-10.874-5.449-12.687l-46.221-21.325   c-4.091-2.266-8.166-0.453-12.242,4.546c-4.98,6.796-7.261,9.515-13.148,16.779c-3.169,4.078-5.434,6.797-9.057,7.25   c-4.091,0.905-9.525-1.359-10.43-1.359C266.193,292.961,249.422,280.713,236.735,269.37L236.735,269.37z M84.441,432.181   l26.288-66.665C81.716,331.957,64.04,287.962,64.04,239.896c0-106.114,86.117-191.831,192.19-191.831   c106.059,0,191.722,85.717,191.722,191.831c0,106.121-85.663,192.284-191.722,192.284c-42.613,0-81.597-13.608-113.318-37.184   L84.441,432.181z M52.258,366.875L16,512l129.628-58.962c33.089,17.232,70.706,27.216,110.602,27.216   c132.338,0,239.77-107.489,239.77-240.357C496,107.481,388.568,0,256.23,0C123.417,0,16,107.481,16,239.896   C16,286.603,29.593,330.145,52.258,366.875L52.258,366.875z" fill="#2A9A84" fill-rule="evenodd"/></g></svg>