<?xml version="1.0" ?><!DOCTYPE svg  PUBLIC '-//W3C//DTD SVG 1.1//EN'  'http://www.w3.org/Graphics/SVG/1.1/DTD/svg11.dtd'><svg enable-background="new 0 0 512 512" height="512px" id="Layer_1" version="1.1" viewBox="0 0 512 512" width="512px" xml:space="preserve" xmlns="http://www.w3.org/2000/svg" xmlns:xlink="http://www.w3.org/1999/xlink"><g><path clip-rule="evenodd" d="M256.23,512C396.81,512,512,396.81,512,256.23   C512,115.184,396.81,0,256.23,0C115.184,0,0,115.184,0,256.23C0,396.81,115.184,512,256.23,512L256.23,512z" fill="#02709A" fill-rule="evenodd"/><path clip-rule="evenodd" d="M263.933,173.231c-12.701-26.755-40.362-45.347-72.109-45.347   c-43.987,0-79.812,35.824-79.812,80.265c0,43.996,35.824,79.812,79.812,79.812v24.044l-95.685-39.918v96.146l95.685-24.028v39.901   h144.211l-48.072-96.146h48.072c44.449,0,80.273-35.816,80.273-79.812c0-44.441-35.824-80.265-80.273-80.265   C304.288,127.885,277.088,146.477,263.933,173.231L263.933,173.231z M224.023,208.15c0,17.686-14.507,31.747-32.2,31.747   c-17.686,0-31.738-14.061-31.738-31.747s14.053-32.192,31.738-32.192C209.517,175.958,224.023,190.464,224.023,208.15   L224.023,208.15z M336.034,239.896c-17.686,0-32.199-14.061-32.199-31.747s14.514-32.192,32.199-32.192   c17.687,0,32.2,14.506,32.2,32.192S353.721,239.896,336.034,239.896L336.034,239.896z" fill="#FFFFFF" fill-rule="evenodd"/></g></svg>