<?xml version="1.0" ?><!DOCTYPE svg  PUBLIC '-//W3C//DTD SVG 1.1//EN'  'http://www.w3.org/Graphics/SVG/1.1/DTD/svg11.dtd'><svg enable-background="new 0 0 512 512" height="512px" id="Layer_1" version="1.1" viewBox="0 0 512 512" width="512px" xml:space="preserve" xmlns="http://www.w3.org/2000/svg" xmlns:xlink="http://www.w3.org/1999/xlink"><g><path clip-rule="evenodd" d="M256.23,512C396.81,512,512,396.81,512,256.23   C512,115.184,396.81,0,256.23,0C115.184,0,0,115.184,0,256.23C0,396.81,115.184,512,256.23,512L256.23,512z" fill="#2C526A" fill-rule="evenodd"/><path clip-rule="evenodd" d="M224.023,96.139h48.064v79.819h48.073v48.065h-48.073v112.011   c0,27.669,54.885,26.311,79.82,7.719v56.228c-15.874,9.078-48.073,16.327-79.82,16.327c-43.979,0-80.265-36.277-80.265-80.273   V224.023h-31.738v-48.065C185.027,172.778,214.501,151.469,224.023,96.139L224.023,96.139z" fill="#FFFFFF" fill-rule="evenodd"/></g></svg>