<?xml version="1.0" ?><!DOCTYPE svg  PUBLIC '-//W3C//DTD SVG 1.1//EN'  'http://www.w3.org/Graphics/SVG/1.1/DTD/svg11.dtd'><svg enable-background="new 0 0 512 512" height="512px" id="Layer_1" version="1.1" viewBox="0 0 512 512" width="512px" xml:space="preserve" xmlns="http://www.w3.org/2000/svg" xmlns:xlink="http://www.w3.org/1999/xlink"><g><path clip-rule="evenodd" d="M512,168.488V32L287.512,237.412l-40.808-40.367   c-12.701-12.231-32.652-12.685-45.354,0l-4.078,4.093c-17.232-34.009-52.603-57.598-93.426-57.598   C46.713,143.54,0,190.25,0,247.378c0,48.975,34.465,90.232,80.725,100.667c1.359,3.171,3.625,5.89,5.89,8.155l114.736,114.273   c12.701,12.701,32.652,12.701,45.354,0L361.44,356.201c12.233-12.232,12.233-32.634,0-44.882l-0.453-0.453L512,168.488z" fill="#0CA3D1" fill-rule="evenodd"/><path clip-rule="evenodd" d="M224.02,414.704l-86.614-86.154   c-10.421,4.077-21.763,6.343-33.559,6.343c-48.525,0-87.974-39.445-87.974-87.514c0-48.521,39.448-87.966,87.974-87.966   c48.979,0,87.974,39.445,87.974,87.966c0,11.795-2.266,23.121-6.343,33.103l38.542,38.539L496.127,70.539v88.873L224.02,414.704z" fill="#FFFFFF" fill-rule="evenodd"/></g></svg>