<?xml version="1.0" ?><!DOCTYPE svg  PUBLIC '-//W3C//DTD SVG 1.1//EN'  'http://www.w3.org/Graphics/SVG/1.1/DTD/svg11.dtd'><svg enable-background="new 0 0 512 512" height="512px" id="Layer_1" version="1.1" viewBox="0 0 512 512" width="512px" xml:space="preserve" xmlns="http://www.w3.org/2000/svg" xmlns:xlink="http://www.w3.org/1999/xlink"><g><path clip-rule="evenodd" d="M256.23,512C396.81,512,512,396.81,512,256.23   C512,115.184,396.81,0,256.23,0C115.184,0,0,115.184,0,256.23C0,396.81,115.184,512,256.23,512L256.23,512z" fill="#1C8642" fill-rule="evenodd"/><polygon clip-rule="evenodd" fill="#FFFFFF" fill-rule="evenodd" points="256.23,63.938 399.98,384.107 272.088,384.107    272.088,350.096 318.802,322.88 310.646,309.287 272.088,331.504 272.088,312.912 302.476,295.227 294.773,281.165 272.088,294.32    272.088,256.23 239.896,256.23 239.896,294.32 217.219,281.165 209.517,295.227 239.896,312.912 239.896,384.107 112.012,384.107     "/></g></svg>