<?xml version="1.0" ?><!DOCTYPE svg  PUBLIC '-//W3C//DTD SVG 1.1//EN'  'http://www.w3.org/Graphics/SVG/1.1/DTD/svg11.dtd'><svg enable-background="new 0 0 512 512" height="512px" id="Layer_1" version="1.1" viewBox="0 0 512 512" width="512px" xml:space="preserve" xmlns="http://www.w3.org/2000/svg" xmlns:xlink="http://www.w3.org/1999/xlink"><g><path clip-rule="evenodd" d="M256.23,479.801c-53.064,0-101.591-18.139-140.141-48.979   c45.808-63.493,109.746-113.378,185.027-136.501c21.311,54.869,37.184,111.551,46.714,165.982   C319.708,472.989,288.868,479.801,256.23,479.801L256.23,479.801z M92.514,409.059C54.869,369.141,32.2,315.178,32.2,256.23   c0-2.726,0-5.452,0-8.171c77.999,3.172,160.99-4.983,235.811-30.387c7.265,15.42,14.514,30.84,20.857,46.713   C209.517,289.774,141.493,341.94,92.514,409.059L92.514,409.059z M35.372,216.313c13.147-73.46,62.579-134.689,128.337-164.615   c33.56,40.816,63.494,87.522,89.795,136.954C184.574,211.782,107.934,219.039,35.372,216.313L35.372,216.313z M195.456,40.363   c19.045-5.445,39.457-8.163,60.774-8.163c58.041,0,110.645,21.763,150.547,58.041c-33.106,39.003-75.727,67.571-123.347,87.53   C257.59,128.338,228.108,81.624,195.456,40.363L195.456,40.363z M429.009,113.824c31.747,38.098,50.792,87.529,50.792,141.039   c-56.697-11.334-110.66-9.975-159.64,0.906c-6.796-16.779-14.514-33.105-22.216-49.432   C347.83,185.027,393.185,154.64,429.009,113.824L429.009,113.824z M477.988,287.056c-9.077,65.759-47.167,122.455-100.677,157.374   c-9.983-52.151-25.403-106.13-45.354-158.28C376.858,276.635,425.838,276.182,477.988,287.056L477.988,287.056z M512,256.23   C512,114.73,397.263,0,256.23,0C114.73,0,0,114.73,0,256.23C0,397.263,114.73,512,256.23,512C397.263,512,512,397.263,512,256.23   L512,256.23z" fill="#F3746A" fill-rule="evenodd"/></g></svg>