<?xml version="1.0" ?><!DOCTYPE svg  PUBLIC '-//W3C//DTD SVG 1.1//EN'  'http://www.w3.org/Graphics/SVG/1.1/DTD/svg11.dtd'><svg enable-background="new 0 0 512 512" height="512px" id="Layer_1" version="1.1" viewBox="0 0 512 512" width="512px" xml:space="preserve" xmlns="http://www.w3.org/2000/svg" xmlns:xlink="http://www.w3.org/1999/xlink"><g><path clip-rule="evenodd" d="M219.945,352.361h273.463   C457.115,441.695,372.313,506.095,271.636,512L219.945,352.361z" fill="#36B39B" fill-rule="evenodd"/><path clip-rule="evenodd" d="M153.734,251.685L238.084,512   c-100.677-7.265-185.027-72.117-220.398-161.904L153.734,251.685z" fill="#0CA3D1" fill-rule="evenodd"/><path clip-rule="evenodd" d="M228.562,157.358L7.71,317.896C2.719,298.398,0,277.541,0,256.23   c0-79.366,36.277-150.569,92.967-197.729L228.562,157.358z" fill="#8E459A" fill-rule="evenodd"/><path clip-rule="evenodd" d="M256.23,0c50.323,0,97.49,14.967,137.407,39.91l-52.15,159.624   L120.628,38.996C159.632,14.054,206.338,0,256.23,0L256.23,0z" fill="#E1584B" fill-rule="evenodd"/><path clip-rule="evenodd" d="M420.838,60.314C476.629,107.02,512,177.317,512,256.23   c0,22.217-2.733,43.526-8.171,63.931H336.034L420.838,60.314z" fill="#ECBF4F" fill-rule="evenodd"/></g></svg>