<?xml version="1.0" ?><!DOCTYPE svg  PUBLIC '-//W3C//DTD SVG 1.1//EN'  'http://www.w3.org/Graphics/SVG/1.1/DTD/svg11.dtd'><svg enable-background="new 0 0 512 512" height="512px" id="Layer_1" version="1.1" viewBox="0 0 512 512" width="512px" xml:space="preserve" xmlns="http://www.w3.org/2000/svg" xmlns:xlink="http://www.w3.org/1999/xlink"><g><path clip-rule="evenodd" d="M256.23,512C396.81,512,512,396.81,512,256.23   C512,115.184,396.81,0,256.23,0C115.184,0,0,115.184,0,256.23C0,396.81,115.184,512,256.23,512L256.23,512z" fill="#0CA3D1" fill-rule="evenodd"/><path clip-rule="evenodd" d="M256.23,175.958l95.678,48.065l-95.678,48.064l-80.272,63.946   l-96.146-48.072l80.273-63.938L256.23,175.958z M256.23,303.835l-80.272,64.399l-15.873-8.155v24.028l96.146,48.073l95.678-48.073   v-24.028l-15.874,8.155L256.23,303.835z M160.085,224.023l96.146,48.064l79.804,63.946l96.146-48.072l-80.272-63.938l80.272-63.938   l-96.146-48.073l-79.804,63.946l-80.272-63.946l-96.146,48.073L160.085,224.023z" fill="#FFFFFF" fill-rule="evenodd"/></g></svg>