<?xml version="1.0" ?><!DOCTYPE svg  PUBLIC '-//W3C//DTD SVG 1.1//EN'  'http://www.w3.org/Graphics/SVG/1.1/DTD/svg11.dtd'><svg enable-background="new 0 0 512 512" height="512px" id="Layer_1" version="1.1" viewBox="0 0 512 512" width="512px" xml:space="preserve" xmlns="http://www.w3.org/2000/svg" xmlns:xlink="http://www.w3.org/1999/xlink"><g><path clip-rule="evenodd" d="M256.23,512C396.81,512,512,396.81,512,256.23   C512,115.184,396.81,0,256.23,0C115.184,0,0,115.184,0,256.23C0,396.81,115.184,512,256.23,512L256.23,512z" fill="#ECBF4F" fill-rule="evenodd"/><path clip-rule="evenodd" d="M143.758,279.807c0-43.535,50.338-79.367,112.472-79.367   c61.665,0,112.004,35.833,112.004,79.367c0,43.995-50.339,79.819-112.004,79.819C194.097,359.626,143.758,323.802,143.758,279.807   L143.758,279.807z M96.139,127.885v151.922c0,57.587,71.656,104.301,160.092,104.301c88.429,0,160.077-46.714,160.077-104.301   c0-57.143-71.648-103.849-160.077-103.849c-43.995,0-83.452,11.335-112.472,29.927v-78H96.139z" fill="#FFFFFF" fill-rule="evenodd"/></g></svg>