<?xml version="1.0" ?><!DOCTYPE svg  PUBLIC '-//W3C//DTD SVG 1.1//EN'  'http://www.w3.org/Graphics/SVG/1.1/DTD/svg11.dtd'><svg enable-background="new 0 0 512 512" height="512px" id="Layer_1" version="1.1" viewBox="0 0 512 512" width="512px" xml:space="preserve" xmlns="http://www.w3.org/2000/svg" xmlns:xlink="http://www.w3.org/1999/xlink"><g><path clip-rule="evenodd" d="M256.23,512C396.81,512,512,396.81,512,256.23   C512,115.184,396.81,0,256.23,0C115.184,0,0,115.184,0,256.23C0,396.81,115.184,512,256.23,512L256.23,512z" fill="#8E459A" fill-rule="evenodd"/><path clip-rule="evenodd" d="M336.034,112.012c15.874,4.539,32.2,4.078,48.073,0   l-107.926,175.95v144.219c-6.812-2.266-13.607-3.172-19.951-3.172c-6.812,0-13.615,0.906-20.412,3.172V287.962l-107.934-175.95   c15.874,4.078,32.2,4.539,48.073,0l80.272,127.885L336.034,112.012z" fill="#FFFFFF" fill-rule="evenodd"/></g></svg>