<?xml version="1.0" ?><!DOCTYPE svg  PUBLIC '-//W3C//DTD SVG 1.1//EN'  'http://www.w3.org/Graphics/SVG/1.1/DTD/svg11.dtd'><svg enable-background="new 0 0 512 512" height="512px" id="Layer_1" version="1.1" viewBox="0 0 512 512" width="512px" xml:space="preserve" xmlns="http://www.w3.org/2000/svg" xmlns:xlink="http://www.w3.org/1999/xlink"><g><path clip-rule="evenodd" d="M63.938,271.869h79.82c17.686,0,48.065,7.698,48.065,41.693   c0,17.677-14.053,38.538-31.738,38.538H63.938V271.869z M320.161,111.866h143.767v48.048H320.161V111.866z M444.883,271.869   H339.206c3.641-28.561,24.95-47.596,53.072-47.596C419.932,224.273,440.336,243.769,444.883,271.869L444.883,271.869z    M336.034,304.052H512c0-2.716,0-5.434,0-8.166c0-66.17-47.62-119.654-119.722-119.654c-72.57,0-120.19,53.483-120.19,119.654   c0,66.631,47.62,120.114,120.19,120.114c72.102,0,106.567-41.241,117.44-96.082h-64.836c-5.906,28.092-22.686,48.049-52.604,48.049   C361.892,367.967,338.3,339.858,336.034,304.052L336.034,304.052z M256.23,319.918c0-34.901-23.138-64.82-54.424-75.696   c22.67-14.054,38.09-39.437,38.09-67.99c0-44.426-35.824-80.232-79.812-80.232H0v320h160.085   C212.688,416,256.23,372.948,256.23,319.918L256.23,319.918z M143.758,224.273h-79.82v-64.359h79.82   c17.686,0,32.2,14.5,32.2,32.176C175.958,209.774,161.444,224.273,143.758,224.273L143.758,224.273z" fill="#0CA3D1" fill-rule="evenodd"/></g></svg>