<?xml version="1.0" ?><!DOCTYPE svg  PUBLIC '-//W3C//DTD SVG 1.1//EN'  'http://www.w3.org/Graphics/SVG/1.1/DTD/svg11.dtd'><svg enable-background="new 0 0 512 512" height="512px" id="Layer_1" version="1.1" viewBox="0 0 512 512" width="512px" xml:space="preserve" xmlns="http://www.w3.org/2000/svg" xmlns:xlink="http://www.w3.org/1999/xlink"><g><path clip-rule="evenodd" d="M256.23,512C396.81,512,512,396.81,512,256.23   C512,115.184,396.81,0,256.23,0C115.184,0,0,115.184,0,256.23C0,396.81,115.184,512,256.23,512L256.23,512z" fill="#E9E8E9" fill-rule="evenodd"/><path clip-rule="evenodd" d="M160.085,336.034c43.987,0,79.812-35.824,79.812-79.804   c0-44.448-35.824-80.272-79.812-80.272c-43.996,0-80.273,35.824-80.273,80.272C79.812,300.21,116.089,336.034,160.085,336.034   L160.085,336.034z" fill="#0CA3D1" fill-rule="evenodd"/><path clip-rule="evenodd" d="M351.908,336.034c44.448,0,80.272-35.824,80.272-79.804   c0-44.448-35.824-80.272-80.272-80.272c-43.979,0-79.82,35.824-79.82,80.272C272.088,300.21,307.929,336.034,351.908,336.034   L351.908,336.034z" fill="#F05B78" fill-rule="evenodd"/></g></svg>