<?xml version="1.0" ?><!DOCTYPE svg  PUBLIC '-//W3C//DTD SVG 1.1//EN'  'http://www.w3.org/Graphics/SVG/1.1/DTD/svg11.dtd'><svg enable-background="new 0 0 512 512" height="512px" id="Layer_1" version="1.1" viewBox="0 0 512 512" width="512px" xml:space="preserve" xmlns="http://www.w3.org/2000/svg" xmlns:xlink="http://www.w3.org/1999/xlink"><g><path clip-rule="evenodd" d="M136.048,0c26.302,0,51.245,7.71,72.102,20.857   c15.42-3.172,31.293-4.984,48.081-4.984c132.408,0,239.896,107.473,239.896,240.357c0,16.311-1.813,32.185-4.999,47.604   C504.282,324.708,512,349.643,512,375.952C512,451.226,451.226,512,375.952,512c-26.31,0-51.244-7.718-72.117-20.872   c-15.42,3.187-31.294,4.999-47.604,4.999c-132.884,0-240.357-107.488-240.357-239.896c0-16.787,1.812-32.66,4.984-48.081   C7.71,187.293,0,162.35,0,136.048C0,60.767,60.767,0,136.048,0L136.048,0z" fill="#0CA3D1" fill-rule="evenodd"/><path clip-rule="evenodd" d="M261.668,232.64c44.886,11.342,99.317,34.012,99.317,89.334   c0,59.416-51.245,86.163-104.755,86.163c-47.627,0-87.982-27.2-102.95-72.555c-4.085-12.702,0.906-29.935,14.967-34.919   c15.412-5.437,28.114,2.266,36.277,17.686c9.976,19.045,24.942,41.73,51.705,41.73c19.951,0,47.151-7.718,47.604-36.277   c0.453-24.045-31.294-39.012-53.51-44.448c-44.894-11.343-99.31-34.012-99.31-89.342c0-59.408,51.244-86.163,105.215-86.163   c47.151,0,87.522,27.208,102.489,72.563c4.078,12.694-0.922,29.927-14.967,34.918c-14.968,5.437-28.122-2.265-36.277-17.686   c-9.983-19.053-24.951-41.722-51.245-41.722c-20.412,0-47.627,7.71-48.081,36.277C207.697,212.235,239.443,227.203,261.668,232.64   L261.668,232.64z" fill="#FFFFFF" fill-rule="evenodd"/></g></svg>