<?xml version="1.0" ?><!DOCTYPE svg  PUBLIC '-//W3C//DTD SVG 1.1//EN'  'http://www.w3.org/Graphics/SVG/1.1/DTD/svg11.dtd'><svg enable-background="new 0 0 512 512" height="512px" id="Layer_1" version="1.1" viewBox="0 0 512 512" width="512px" xml:space="preserve" xmlns="http://www.w3.org/2000/svg" xmlns:xlink="http://www.w3.org/1999/xlink"><g><path clip-rule="evenodd" d="M256.23,512C396.81,512,512,396.81,512,256.23   C512,115.184,396.81,0,256.23,0C115.184,0,0,115.184,0,256.23C0,396.81,115.184,512,256.23,512L256.23,512z" fill="#0D2636" fill-rule="evenodd"/><path clip-rule="evenodd" d="M175.958,312.006V160.085h-32.2v48.065h-47.62v103.856H175.958z    M336.034,208.15v103.856h48.073v15.873h-48.073v24.029h80.273V208.15H336.034z M368.234,232.187h15.873v55.775h-15.873V232.187z    M320.161,208.15h-80.265v103.856h48.065v15.873h-48.065v24.029h80.265V208.15z M272.088,232.187h15.874v55.775h-15.874V232.187z    M191.823,184.113h31.747v-24.028h-31.747V184.113z M192.284,208.15v103.856h31.739V208.15H192.284z M127.885,232.187h15.874   v55.775h-15.874V232.187z" fill="#FFFFFF" fill-rule="evenodd"/></g></svg>